<svg width="32" height="32" viewBox="0 0 32 32" fill="none" xmlns="http://www.w3.org/2000/svg">
<path d="M19.013 15.3825C19.3483 15.3477 19.6826 15.3036 20.0155 15.25V12.8995C19.5035 13.144 18.9695 13.295 18.4385 13.412C17.092 13.6935 15.7225 13.7265 14.3655 13.5845C13.6815 13.498 13.023 13.385 12.341 13.1425C12.206 13.0915 12.072 13.0345 11.9385 12.9705V15.0835C14.2795 15.467 16.66 15.6295 19.013 15.3825Z" fill="#D34949"/>
<path d="M28.1495 20.9935V12.4205C28.1495 11.4265 27.4665 10.501 26.298 9.717V5.9625C26.298 5.595 26.0065 5.291 25.627 5.2335C25.9055 5.1155 26.1025 4.872 26.1025 4.579C26.1025 4.1725 25.2765 2.8605 25.2765 2.8605C25.2765 2.8605 24.4495 4.172 24.4495 4.579C24.4495 4.868 24.642 5.1095 24.915 5.2295C24.514 5.2695 24.1995 5.581 24.1995 5.9625V8.655C23.4673 8.37572 22.7173 8.1457 21.9545 7.9665C21.9939 7.87202 22.0148 7.77085 22.016 7.6685C22.016 7.177 21.016 5.5915 21.016 5.5915C21.016 5.5915 20.101 7.0435 20.024 7.5985C19.0445 7.454 18.002 7.37 16.9265 7.336V3.7335C16.9265 3.403 16.6705 3.127 16.3325 3.0665C16.563 2.959 16.724 2.751 16.724 2.5035C16.7235 2.1475 16 1 16 1C16 1 15.2765 2.1475 15.2765 2.5035C15.2765 2.748 15.4335 2.954 15.6595 3.0625C15.303 3.1085 15.0265 3.39 15.0265 3.7335V7.3365C13.975 7.3715 12.9555 7.4545 11.9965 7.5955C11.9025 7.028 11.006 5.606 11.006 5.606C11.006 5.606 10.006 7.191 10.006 7.683C10.006 7.7815 10.0285 7.8745 10.0615 7.963C9.27359 8.14677 8.49953 8.38552 7.745 8.6775V5.97C7.745 5.603 7.453 5.299 7.073 5.2415C7.3515 5.1235 7.5495 4.8795 7.5495 4.5865C7.5495 4.18 6.7225 2.868 6.7225 2.868C6.7225 2.868 5.8955 4.1795 5.8955 4.5865C5.8955 4.8755 6.0885 5.117 6.3615 5.237C5.96 5.2775 5.6455 5.589 5.6455 5.97V9.757C4.512 10.533 3.8495 11.444 3.8495 12.421V20.995C2.0585 22.033 1 23.31 1 24.6915C1 28.176 7.716 31 16 31C24.284 31 31 28.176 31 24.6915C31 23.3095 29.941 22.0325 28.1495 20.9935ZM24.8625 4.9715C24.8625 4.768 25.2765 4.112 25.2765 4.112C25.2765 4.112 25.6905 4.768 25.6905 4.9715C25.6896 5.02065 25.678 5.06901 25.6565 5.11322C25.635 5.15743 25.6041 5.19643 25.566 5.2275C25.543 5.2255 25.5205 5.221 25.497 5.221H25.001C24.9945 5.221 24.989 5.2225 24.9825 5.2225C24.9457 5.1917 24.9159 5.15335 24.8952 5.11005C24.8745 5.06674 24.8634 5.01949 24.8625 4.9715ZM24.699 5.9625C24.699 5.8315 24.837 5.7215 25.001 5.7215H25.497C25.66 5.7215 25.798 5.832 25.798 5.9625V11.361C25.7972 11.4139 25.7765 11.4646 25.74 11.503L25.556 11.597C25.5367 11.6005 25.5171 11.6023 25.4975 11.6025H25.0015C24.838 11.6025 24.6995 11.4915 24.6995 11.361V5.9625H24.699ZM21.0155 7.1045C21.0155 7.1045 21.5165 7.897 21.5165 8.143C21.5165 8.3885 21.292 8.588 21.0155 8.588C20.739 8.588 20.5155 8.389 20.5155 8.143C20.5155 7.897 21.0155 7.1045 21.0155 7.1045ZM15.6385 2.8465C15.6385 2.669 16 2.0955 16 2.0955C16 2.0955 16.3625 2.6685 16.3625 2.8465C16.3616 2.88694 16.3524 2.92676 16.3354 2.96349C16.3185 3.00022 16.2942 3.03307 16.264 3.06C16.24 3.0575 16.217 3.053 16.1925 3.053H15.759C15.75 3.053 15.742 3.055 15.733 3.0555C15.7039 3.02886 15.6806 2.99661 15.6643 2.96069C15.6481 2.92476 15.6393 2.88592 15.6385 2.8465ZM15.5265 3.7335C15.5265 3.636 15.633 3.5535 15.759 3.5535H16.1925C16.319 3.5535 16.426 3.636 16.426 3.7335V8.4575C16.4254 8.49369 16.4116 8.52841 16.387 8.555L16.2345 8.6335C16.2206 8.63551 16.2066 8.63651 16.1925 8.6365H15.759C15.633 8.6365 15.5265 8.5545 15.5265 8.4575V3.7335ZM11.006 7.118C11.006 7.118 11.506 7.911 11.506 8.157C11.506 8.402 11.2825 8.602 11.006 8.602C10.7295 8.602 10.506 8.4025 10.506 8.157C10.506 7.911 11.006 7.118 11.006 7.118ZM6.3095 4.978C6.3095 4.7755 6.7225 4.1195 6.7225 4.1195C6.7225 4.1195 7.1365 4.7755 7.1365 4.978C7.13567 5.02736 7.12404 5.07594 7.10245 5.12034C7.08086 5.16473 7.04982 5.20387 7.0115 5.235C6.9885 5.233 6.9665 5.2285 6.943 5.2285H6.447C6.441 5.2285 6.4355 5.23 6.4295 5.23C6.39273 5.19894 6.36301 5.1604 6.34232 5.11694C6.32162 5.07349 6.31044 5.02612 6.3095 4.978ZM6.1455 5.969C6.1455 5.8385 6.2835 5.7285 6.4475 5.7285H6.9435C7.107 5.7285 7.2455 5.839 7.2455 5.969V11.368C7.24453 11.4207 7.22362 11.4711 7.187 11.509L7.003 11.6035C6.98352 11.607 6.96378 11.6088 6.944 11.609H6.448C6.2845 11.609 6.146 11.4985 6.146 11.368V5.969H6.1455ZM5.5935 11.7905C5.61 11.7055 5.643 11.628 5.6725 11.549C5.7055 11.67 5.7705 11.7785 5.859 11.868C5.82 12.1535 5.89 12.443 6.0425 12.6935C6.367 13.215 6.9225 13.58 7.4885 13.87C8.281 14.2645 9.134 14.516 10.006 14.714V9.6245C10.006 9.492 10.0695 9.376 10.1625 9.2805C10.0185 9.3085 9.8735 9.3295 9.7305 9.3615C9.058 9.5145 8.374 9.717 7.745 10.0095V9.745C7.7525 9.7415 7.7595 9.7375 7.767 9.7345C8.381 9.46 9.0215 9.2585 9.671 9.1045C10.9725 8.80329 12.2999 8.62815 13.635 8.5815C14.1025 8.564 14.571 8.5665 15.04 8.578C15.0885 8.824 15.2795 9.021 15.53 9.0985C14.9023 9.03372 14.272 8.99818 13.641 8.992C12.8999 8.98842 12.159 9.02313 11.4215 9.096C11.716 9.153 11.939 9.362 11.939 9.6245V10.5405L11.9655 10.5275C12.3085 10.3785 12.648 10.2925 12.991 10.2275C13.6755 10.1015 14.361 10.074 15.0435 10.113C15.7295 10.1605 16.3995 10.2555 17.0695 10.541C17.2345 10.616 17.399 10.7075 17.5515 10.8455C17.696 10.972 17.8655 11.2175 17.7975 11.4985C17.725 11.7605 17.5445 11.8935 17.3905 11.9955C17.2343 12.0913 17.0657 12.1653 16.8895 12.2155C16.211 12.412 15.5245 12.41 14.853 12.3245C14.5165 12.271 14.1885 12.209 13.8685 12.0545C13.72 11.9735 13.544 11.875 13.492 11.666C13.4635 11.4355 13.662 11.3155 13.8 11.2425L13.836 11.308C13.704 11.388 13.573 11.519 13.611 11.64C13.649 11.761 13.7985 11.845 13.9375 11.9035C14.224 12.018 14.56 12.0595 14.8775 12.0835C15.52 12.118 16.1835 12.057 16.7695 11.8555C17.0325 11.771 17.3595 11.555 17.3725 11.4055C17.4135 11.2985 17.1535 11.0855 16.8775 10.992C16.315 10.785 15.6485 10.722 15.018 10.6985C14.38 10.684 13.735 10.733 13.121 10.8685C12.8165 10.9365 12.5145 11.0275 12.254 11.152C12.1436 11.205 12.0382 11.2678 11.939 11.3395V12.098C12.125 12.227 12.3585 12.334 12.6005 12.419C13.169 12.6135 13.825 12.7225 14.453 12.7895C15.7255 12.924 17.0325 12.881 18.2825 12.6465C18.897 12.5255 19.5055 12.353 20.016 12.061V10.26C19.815 10.14 19.6025 10.03 19.378 9.936C18.7995 9.6935 18.172 9.533 17.5335 9.3985C16.9772 9.28926 16.4167 9.20219 15.8535 9.1375H16.1935C16.256 9.1375 16.318 9.13 16.3785 9.115L16.6505 8.983L16.7025 8.9475C16.779 8.8785 16.8365 8.797 16.8745 8.708C17.1315 8.7395 17.388 8.7705 17.644 8.8145C18.3035 8.93 18.97 9.075 19.623 9.322C19.7645 9.375 19.9045 9.4365 20.0435 9.5025C20.1065 9.252 20.3625 9.059 20.6835 9.059H21.283C21.651 9.059 21.95 9.307 21.95 9.612V14.815C23.493 14.3585 24.954 13.638 26.184 12.5545L26.236 12.608C25.337 13.5905 24.194 14.355 22.964 14.892C22.6315 15.0355 22.293 15.164 21.9505 15.2815V15.7C21.9505 15.852 21.8765 15.9905 21.756 16.09L21.456 16.234C21.3992 16.2464 21.3412 16.253 21.283 16.2535H20.6835C20.357 16.2535 20.0975 16.055 20.04 15.797C19.7235 15.8605 19.405 15.915 19.086 15.959C16.7045 16.2855 14.2835 16.1715 11.933 15.739C11.9284 15.8093 11.9095 15.8779 11.8773 15.9406C11.8451 16.0033 11.8004 16.0588 11.746 16.1035L11.446 16.247C11.3915 16.259 11.3325 16.267 11.273 16.267H10.6735C10.3045 16.267 10.0065 16.019 10.0065 15.7135V15.303C9.0715 15.0475 8.147 14.723 7.2905 14.2375C6.708 13.895 6.125 13.478 5.7745 12.8455C5.6035 12.5315 5.519 12.1505 5.5935 11.7905ZM27.1495 23.6685C27.1495 25.609 22.3815 27.779 16 27.779C9.618 27.779 4.8495 25.609 4.8495 23.6685V21.6815C5.3415 21.655 5.7345 21.2985 5.7345 20.859V18.9315C5.7345 18.3245 6.294 17.8325 6.9845 17.8325C7.675 17.8325 8.2355 18.3245 8.2355 18.9315V21.3095C8.2355 22.0155 8.887 22.5885 9.6895 22.5885C10.493 22.5885 11.1445 22.0155 11.1445 21.3095V18.88C11.1445 18.2445 11.7305 17.73 12.453 17.73C13.1765 17.73 13.7625 18.2445 13.7625 18.88V20.429C13.7625 20.7825 14.0875 21.0685 14.49 21.0685C14.8915 21.0685 15.2165 20.7825 15.2165 20.429V19.2C15.2165 18.741 15.6405 18.369 16.163 18.369C16.6845 18.369 17.1075 18.741 17.1075 19.2V21.31C17.1075 22.016 17.76 22.589 18.5625 22.589C19.366 22.589 20.0175 22.016 20.0175 21.31V18.945C20.0175 18.345 20.571 17.858 21.254 17.858C21.937 17.858 22.4905 18.345 22.4905 18.945V20.671C22.4905 21.024 22.8155 21.31 23.218 21.31C23.6195 21.31 23.9455 21.024 23.9455 20.671V19.4625C23.9455 19.148 24.2345 18.893 24.592 18.893C24.9505 18.893 25.2405 19.148 25.2405 19.4625V21.31C25.2405 22.016 25.891 22.589 26.6945 22.589C26.8545 22.589 27.0055 22.5605 27.1495 22.5185V23.6685Z" fill="#D34949"/>
</svg>
