<svg width="228" height="40" viewBox="0 0 228 40" fill="none" xmlns="http://www.w3.org/2000/svg">
<path d="M35.6055 26.4492C35.8984 26.4492 36.0449 26.6602 36.0449 27.082C36.0449 27.4922 35.9688 27.832 35.8164 28.1016C35.6641 28.3711 35.4883 28.6172 35.2891 28.8398C35.0898 29.0625 34.8379 29.2734 34.5332 29.4727C33.8184 29.9414 33.0625 30.1758 32.2656 30.1758C31.4805 30.1758 30.8535 30.082 30.3848 29.8945C29.9277 29.6953 29.5293 29.4023 29.1895 29.0156C28.4629 28.207 28.0996 27.0879 28.0996 25.6582C28.0996 24.1348 28.3926 22.2773 28.9785 20.0859C29.5645 17.8828 30.127 16.002 30.666 14.4434C31.2168 12.873 31.7793 11.3789 32.3535 9.96094L33.9355 5.93555C32.2012 7.49414 30.0039 10.7695 27.3438 15.7617L23.0898 23.8125C20.8164 28.0547 19.1934 30.1758 18.2207 30.1758C17.2715 30.1758 16.6211 29.7656 16.2695 28.9453C15.9531 28.1602 15.7949 26.8301 15.7949 24.9551C15.7949 23.0684 15.9414 21.2637 16.2344 19.541C16.5391 17.8066 16.9199 16.1133 17.377 14.4609C18.1738 11.543 19.2051 8.64844 20.4707 5.77734C19.2402 6.46875 17.875 8.00977 16.375 10.4004C15.2266 12.3105 14.418 13.7051 13.9492 14.584L9.41406 22.9336C7.52734 26.3672 6.00977 28.4883 4.86133 29.2969C4.0293 29.8828 3.13281 30.1758 2.17188 30.1758C1.35156 30.1758 0.759766 29.918 0.396484 29.4023C0.255859 29.1914 0.185547 28.998 0.185547 28.8223C0.185547 28.6465 0.238281 28.541 0.34375 28.5059C1.07031 28.3066 1.58594 28.1016 1.89062 27.8906C2.18359 27.668 2.47656 27.4453 2.76953 27.2227C3.0625 26.9883 3.49023 26.502 4.05273 25.7637C4.61523 25.0137 5.22461 24.1172 5.88086 23.0742C6.53711 22.0195 7.22266 20.8418 7.9375 19.541L10.1699 15.4277C12.2324 11.4434 14.3887 8.25 16.6387 5.84766C17.4355 4.99219 18.2207 4.33008 18.9941 3.86133C19.7676 3.31055 20.6641 2.94141 21.6836 2.75391C21.9648 2.69531 22.2227 2.66602 22.457 2.66602C22.7031 2.66602 22.9727 2.70117 23.2656 2.77148C23.5703 2.8418 23.834 2.95312 24.0566 3.10547C24.5723 3.45703 24.7246 3.92578 24.5137 4.51172C24.4199 4.86328 24.2383 5.39062 23.9688 6.09375L23.0195 8.60742C20.8047 14.7246 19.5918 20.291 19.3809 25.3066C20.002 24.2402 20.6289 23.0742 21.2617 21.8086L23.248 17.8887L25.3398 13.8984C28.5625 7.92188 31.5566 4.5 34.3223 3.63281C34.8965 3.44531 35.377 3.35156 35.7637 3.35156C36.1504 3.35156 36.4551 3.4043 36.6777 3.50977C36.9004 3.60352 37.0996 3.72656 37.2754 3.87891C37.6855 4.25391 37.8262 4.64062 37.6973 5.03906C37.5684 5.42578 37.3984 5.92383 37.1875 6.5332L34.6387 13.9688L33.7246 16.8867C32.7168 20.2617 32.1191 22.8516 31.9316 24.6562C31.8613 25.418 31.9434 26.0156 32.1777 26.4492C32.4238 26.8711 32.7578 27.082 33.1797 27.082C33.6016 27.082 33.9297 27.0527 34.1641 26.9941C34.4102 26.9238 34.6211 26.8477 34.7969 26.7656L35.2539 26.5547C35.3828 26.4844 35.5 26.4492 35.6055 26.4492ZM38.7695 28.2949C38.6289 27.9082 38.5586 27.4688 38.5586 26.9766C38.5586 26.4727 38.6406 25.916 38.8047 25.3066C38.9805 24.6855 39.2031 24.041 39.4727 23.373C39.7422 22.7051 40.0352 22.0195 40.3516 21.3164L41.3008 19.207C42.5195 16.5 42.9707 14.8945 42.6543 14.3906C42.5137 14.168 42.25 13.9453 41.8633 13.7227C41.7227 13.6406 41.6523 13.5 41.6523 13.3008C41.6523 13.0898 41.7344 12.8906 41.8984 12.7031C42.0742 12.5156 42.2969 12.3516 42.5664 12.2109C43.1406 11.9414 43.7148 11.8066 44.2891 11.8066C44.8633 11.8066 45.2969 11.8711 45.5898 12C45.8945 12.1172 46.1406 12.2695 46.3281 12.457C46.7148 12.8438 46.9082 13.2715 46.9082 13.7402C46.9082 14.209 46.832 14.7363 46.6797 15.3223C46.5273 15.8965 46.3281 16.5234 46.082 17.2031C45.8359 17.8828 45.5664 18.5859 45.2734 19.3125C44.4648 21.2109 43.9199 22.4648 43.6387 23.0742L42.9883 24.4277C42.625 25.2363 42.4434 25.8047 42.4434 26.1328C42.4434 26.4609 42.4961 26.6953 42.6016 26.8359C42.707 26.9648 42.8945 27.0293 43.1641 27.0293C43.4453 27.0293 43.75 26.9238 44.0781 26.7129C44.418 26.502 44.7812 26.2207 45.168 25.8691C45.5547 25.5176 45.9531 25.1133 46.3633 24.6562C46.7852 24.1875 47.1953 23.7012 47.5938 23.1973C48.6367 21.9082 49.4102 20.8008 49.9141 19.875C52.4453 15.2109 53.7871 12.7734 53.9395 12.5625C54.3262 12.0586 54.7129 11.8066 55.0996 11.8066C55.498 11.8066 55.8438 11.8535 56.1367 11.9473C56.4297 12.0293 56.6816 12.1523 56.8926 12.3164C57.3613 12.6562 57.502 13.0371 57.3145 13.459C57.1387 13.8809 56.9219 14.4609 56.6641 15.1992C54.4375 21.6562 52.9902 25.6816 52.3223 27.2754C51.666 28.8691 51.0918 30.1465 50.5996 31.1074C50.1074 32.0801 49.5273 33.0586 48.8594 34.043C48.2031 35.0273 47.5 35.9238 46.75 36.7324C45.0391 38.5605 43.4336 39.5391 41.9336 39.668C41.3594 39.7148 40.9023 39.6328 40.5625 39.4219C39.9766 39.0703 39.6836 38.7363 39.6836 38.4199C39.6836 38.1035 39.9473 37.8809 40.4746 37.752C41.0137 37.6348 41.5645 37.3887 42.127 37.0137C42.7012 36.6504 43.252 36.2227 43.7793 35.7305C45.3262 34.2539 46.5273 32.6484 47.3828 30.9141C48.1094 29.3906 48.6953 27.9492 49.1406 26.5898L50.5117 22.4062C50.1719 22.8164 49.7969 23.2969 49.3867 23.8477L48.1211 25.5352C47.0195 26.9297 46.1055 27.9199 45.3789 28.5059C43.9961 29.6191 42.7598 30.1758 41.6699 30.1758C40.2168 30.1758 39.25 29.5488 38.7695 28.2949ZM70.1289 22.6172L70.1465 22.1074C70.2754 18.6035 71.1602 15.293 72.8008 12.1758C74.3125 9.32812 76.2168 7.02539 78.5137 5.26758C80.7871 3.5332 83.002 2.66602 85.1582 2.66602C86.7988 2.66602 88.0938 3.23437 89.043 4.37109C89.8516 5.35547 90.2559 6.5625 90.2559 7.99219C90.2559 9.70312 89.6289 11.3906 88.375 13.0547C87.6484 14.0156 86.875 14.707 86.0547 15.1289C85.668 15.3398 85.3047 15.4453 84.9648 15.4453C84.6367 15.4453 84.332 15.375 84.0508 15.2344C83.7695 15.0938 83.5234 14.918 83.3125 14.707C82.8789 14.25 82.6621 13.8398 82.6621 13.4766C82.6621 13.1133 82.7559 12.8613 82.9434 12.7207C84.8652 11.3379 86.1719 9.91406 86.8633 8.44922C87.1328 7.88672 87.2676 7.33594 87.2676 6.79688C87.2676 5.66016 86.7285 5.0918 85.6504 5.0918C83.9629 5.0918 82.2227 6.01172 80.4297 7.85156C78.7539 9.55078 77.3477 11.6836 76.2109 14.25C75.0273 16.8867 74.4004 19.3066 74.3301 21.5098L74.3125 22.1777C74.3125 24.8145 74.8691 26.543 75.9824 27.3633C76.3809 27.6562 76.8555 27.8027 77.4062 27.8027C77.9688 27.8027 78.4961 27.7324 78.9883 27.5918C79.4805 27.4512 79.9727 27.2578 80.4648 27.0117C81.2617 26.6016 82.2812 25.8926 83.5234 24.8848C83.8984 24.5918 84.209 24.6328 84.4551 25.0078C84.666 25.3125 84.7715 25.6641 84.7715 26.0625C84.7715 26.7305 84.6777 27.1875 84.4902 27.4336C84.3145 27.668 84.0039 27.9492 83.5586 28.2773C83.125 28.6055 82.5918 28.9102 81.959 29.1914C80.4824 29.8477 79.0352 30.1758 77.6172 30.1758C76.1992 30.1758 75.0566 30.0059 74.1895 29.666C73.3223 29.3145 72.5898 28.8164 71.9922 28.1719C70.75 26.8125 70.1289 24.9609 70.1289 22.6172ZM102.473 25.3242C102.473 26.4023 102.854 26.9414 103.615 26.9414C104.143 26.9414 104.576 26.8594 104.916 26.6953C105.268 26.5312 105.502 26.4492 105.619 26.4492C105.865 26.4492 105.988 26.5781 105.988 26.8359C105.988 27.8438 105.461 28.7109 104.406 29.4375C103.293 30.1992 102.156 30.3867 100.996 30C100.234 29.7305 99.6719 29.1504 99.3086 28.2598C99.1328 27.8027 99.0449 27.3867 99.0449 27.0117C99.0449 26.4023 99.1035 25.7578 99.2207 25.0781C98.1309 27.3047 96.7773 28.8398 95.1602 29.6836C94.5156 30.0117 93.8301 30.1758 93.1035 30.1758C92.377 30.1758 91.7441 30.0293 91.2051 29.7363C90.6777 29.4316 90.2266 29.0156 89.8516 28.4883C89.0898 27.3867 88.7441 26.0039 88.8145 24.3398C88.8848 22.2539 89.5 20.209 90.6602 18.2051C91.7266 16.3301 93.0742 14.8008 94.7031 13.6172C96.332 12.4102 97.8555 11.8066 99.2734 11.8066C100.691 11.8066 101.834 12.457 102.701 13.7578C103.51 12.457 104.225 11.8066 104.846 11.8066C105.514 11.8066 106.018 11.9297 106.357 12.1758C107.002 12.6445 107.23 13.0547 107.043 13.4062C104.102 19.4297 102.59 23.1797 102.508 24.6562C102.484 24.8672 102.473 25.0898 102.473 25.3242ZM92.7168 25.3945C92.7168 26.8008 93.168 27.5039 94.0703 27.5039C94.7617 27.5039 95.6113 26.918 96.6191 25.7461C98.0957 24.0234 99.4023 21.7031 100.539 18.7852C100.902 17.8711 101.207 16.957 101.453 16.043C101.406 15.2461 101.072 14.6602 100.451 14.2852C100.24 14.1562 99.9238 14.0918 99.502 14.0918C99.0918 14.0918 98.6055 14.2441 98.043 14.5488C97.4922 14.8535 96.9531 15.2695 96.4258 15.7969C95.9102 16.3242 95.4238 16.9512 94.9668 17.6777C94.5215 18.3926 94.1289 19.1719 93.7891 20.0156C93.0742 21.8203 92.7168 23.6133 92.7168 25.3945ZM120.051 30.1582C117.391 30.1582 115.27 27.6328 113.688 22.582C113.066 23.7305 112.551 24.7734 112.141 25.7109L111.086 28.1016C110.781 28.7578 110.494 29.2676 110.225 29.6309C109.967 29.9941 109.674 30.1758 109.346 30.1758C109.018 30.1758 108.719 30.1172 108.449 30C108.18 29.8945 107.945 29.7539 107.746 29.5781C107.336 29.2031 107.131 28.793 107.131 28.3477C107.131 28.1719 107.254 27.8262 107.5 27.3105L108.203 25.8867C110.395 21.375 112.381 15.6562 114.162 8.73047C114.818 6.17578 115.293 3.87891 115.586 1.83984C115.715 0.855469 116.195 0.363281 117.027 0.363281C117.52 0.363281 117.93 0.492187 118.258 0.75C118.891 1.25391 119.195 1.79883 119.172 2.38477C119.148 2.95898 119.066 3.60938 118.926 4.33594C118.797 5.0625 118.621 5.85938 118.398 6.72656C118.176 7.58203 117.924 8.47852 117.643 9.41602C116.881 11.8652 116.312 13.6113 115.938 14.6543L114.285 19.207C114.074 19.7461 113.91 20.1387 113.793 20.3848C116.512 19.3066 118.551 18.0879 119.91 16.7285C120.73 15.9082 121.141 15.1406 121.141 14.4258C121.141 14.0625 121.018 13.7988 120.771 13.6348C120.537 13.4707 120.373 13.3477 120.279 13.2656C120.197 13.1719 120.191 13.0137 120.262 12.791C120.344 12.5566 120.566 12.334 120.93 12.123C121.293 11.9121 121.732 11.8066 122.248 11.8066C122.764 11.8066 123.191 11.8535 123.531 11.9473C123.883 12.041 124.188 12.1875 124.445 12.3867C125.02 12.7969 125.307 13.377 125.307 14.127C125.307 14.877 125.148 15.5684 124.832 16.2012C124.516 16.8223 124.023 17.4258 123.355 18.0117C122.031 19.1367 119.91 20.2266 116.992 21.2812C117.355 22.8398 118.023 24.2109 118.996 25.3945C119.922 26.5195 120.771 27.082 121.545 27.082C121.955 27.082 122.307 27.0117 122.6 26.8711L123.232 26.5547C123.361 26.4844 123.484 26.4492 123.602 26.4492C123.895 26.4492 124.041 26.625 124.041 26.9766C124.041 27.2812 123.988 27.5508 123.883 27.7852C123.777 28.0078 123.625 28.248 123.426 28.5059C123.238 28.7637 122.992 29.0156 122.688 29.2617C121.926 29.8594 121.047 30.1582 120.051 30.1582ZM126.52 23.8477C126.566 22.8281 126.736 21.8555 127.029 20.9297C127.322 19.9922 127.715 19.0898 128.207 18.2227C128.699 17.3438 129.273 16.5176 129.93 15.7441C130.598 14.959 131.318 14.2734 132.092 13.6875C133.768 12.4336 135.461 11.8066 137.172 11.8066C139.176 11.8066 140.512 12.6328 141.18 14.2852C141.414 14.8477 141.525 15.5156 141.514 16.2891C141.502 17.0508 141.355 17.7598 141.074 18.416C140.793 19.0605 140.4 19.6523 139.896 20.1914C139.404 20.7188 138.812 21.1934 138.121 21.6152C137.441 22.0371 136.697 22.3945 135.889 22.6875C134.225 23.2734 132.443 23.5781 130.545 23.6016C130.498 23.7656 130.469 24.0117 130.457 24.3398C130.445 24.668 130.48 25.0371 130.562 25.4473C130.645 25.8457 130.785 26.2031 130.984 26.5195C131.406 27.2227 132.016 27.5742 132.812 27.5742C134.172 27.5742 135.496 27.1758 136.785 26.3789C137.242 26.1094 137.611 25.834 137.893 25.5527C138.186 25.2598 138.438 25.1133 138.648 25.1133C138.859 25.1133 139.041 25.2422 139.193 25.5C139.357 25.7461 139.439 26.0273 139.439 26.3438C139.439 26.9648 139.264 27.5039 138.912 27.9609C137.436 29.4375 135.238 30.1758 132.32 30.1758C130.598 30.1758 129.215 29.6602 128.172 28.6289C127 27.457 126.449 25.8633 126.52 23.8477ZM136.785 14.1445C135.555 14.1445 134.371 14.9883 133.234 16.6758C132.273 18.1289 131.5 19.8516 130.914 21.8438C132.871 21.6445 134.57 20.8711 136.012 19.5234C137.336 18.2578 137.998 17.0449 137.998 15.8848C137.998 14.7246 137.594 14.1445 136.785 14.1445ZM157.562 23.1621L157.404 24.5156C157.404 25.9336 157.879 26.9004 158.828 27.416C159.156 27.5918 159.549 27.6797 160.006 27.6797C160.463 27.6797 160.873 27.6035 161.236 27.4512C161.6 27.2871 161.898 27.0762 162.133 26.8184C162.625 26.291 162.871 25.6816 162.871 24.9902C162.871 24.2988 162.73 23.6719 162.449 23.1094C162.168 22.5469 161.816 21.9844 161.395 21.4219L159.988 19.6992C158.852 18.3398 158.09 17.1035 157.703 15.9902C157.316 14.8652 157.123 13.834 157.123 12.8965C157.123 11.959 157.234 11.0742 157.457 10.2422C157.691 9.39844 158.014 8.60156 158.424 7.85156C158.834 7.08984 159.326 6.39258 159.9 5.75977C160.475 5.12695 161.113 4.58203 161.816 4.125C163.281 3.14062 164.734 2.64844 166.176 2.64844C167.617 2.64844 168.742 2.84766 169.551 3.24609C170.359 3.64453 171.01 4.14844 171.502 4.75781C172.416 5.90625 172.873 7.29492 172.873 8.92383C172.873 10.4355 172.445 11.8594 171.59 13.1953C170.805 14.4141 169.926 15.1875 168.953 15.5156C168.742 15.6211 168.449 15.6738 168.074 15.6738C167.711 15.6738 167.4 15.6211 167.143 15.5156C166.896 15.3984 166.68 15.2461 166.492 15.0586C166.082 14.6484 165.877 14.2031 165.877 13.7227C165.877 13.3945 165.977 13.1777 166.176 13.0723C167.066 12.5918 167.84 11.8945 168.496 10.9805C169.211 9.98437 169.586 8.99414 169.621 8.00977C169.656 7.01367 169.416 6.28125 168.9 5.8125C168.396 5.33203 167.723 5.0918 166.879 5.0918C166.035 5.0918 165.273 5.28516 164.594 5.67188C163.914 6.04687 163.328 6.55664 162.836 7.20117C161.781 8.58398 161.254 10.2188 161.254 12.1055C161.254 13.3594 161.688 14.6836 162.555 16.0781C162.918 16.6758 163.311 17.2676 163.732 17.8535C164.166 18.4277 164.57 19.0195 164.945 19.6289C165.801 21.0469 166.229 22.3184 166.229 23.4434C166.229 24.5684 166.023 25.5176 165.613 26.291C165.215 27.0645 164.682 27.7383 164.014 28.3125C162.572 29.5547 160.932 30.1758 159.092 30.1758C157.357 30.1758 156.021 29.6602 155.084 28.6289C154.334 27.7969 153.959 26.8945 153.959 25.9219C153.959 24.8672 154.258 23.9766 154.855 23.25C155.312 22.6992 155.752 22.3711 156.174 22.2656C157.1 22.0195 157.562 22.3184 157.562 23.1621ZM184.176 15.1289C183.531 15.1289 182.377 16.1133 180.713 18.082L179.254 19.875L176.441 23.5488C175.762 24.8379 175.229 25.9102 174.842 26.7656L173.893 28.8047C173.646 29.3086 173.43 29.666 173.242 29.877C173.066 30.0762 172.82 30.1758 172.504 30.1758C172.199 30.1758 171.9 30.1172 171.607 30C171.326 29.8945 171.08 29.7539 170.869 29.5781C170.424 29.2031 170.201 28.793 170.201 28.3477C170.201 28.1719 170.324 27.8262 170.57 27.3105L171.273 25.8867C173.465 21.375 175.451 15.6562 177.232 8.73047C177.889 6.17578 178.363 3.87891 178.656 1.83984C178.785 0.855469 179.266 0.363281 180.098 0.363281C180.637 0.363281 181.082 0.492187 181.434 0.75C182.113 1.25391 182.441 1.79297 182.418 2.36719C182.395 2.94141 182.312 3.58594 182.172 4.30078C182.031 5.01563 181.85 5.79492 181.627 6.63867C181.404 7.4707 181.152 8.34961 180.871 9.27539C180.098 11.6309 179.523 13.3301 179.148 14.373C178 17.5254 177.291 19.3711 177.021 19.9102C177.197 19.6992 177.426 19.4121 177.707 19.0488C179.84 16.248 181.158 14.5781 181.662 14.0391C182.166 13.4883 182.594 13.0664 182.945 12.7734C183.684 12.1289 184.621 11.8066 185.758 11.8066C186.684 11.8066 187.428 12.1172 187.99 12.7383C188.518 13.3359 188.781 13.9922 188.781 14.707C188.781 15.4102 188.699 16.0488 188.535 16.623C188.383 17.1855 188.184 17.7598 187.938 18.3457C187.691 18.9316 187.422 19.5352 187.129 20.1562L186.25 22.002C185.43 23.8652 185.02 25.248 185.02 26.1504C185.02 26.7832 185.277 27.0996 185.793 27.0996C186.285 27.0996 186.73 26.9941 187.129 26.7832C187.539 26.5723 187.803 26.4668 187.92 26.4668C188.166 26.4668 188.289 26.5898 188.289 26.8359C188.289 27.8789 187.762 28.752 186.707 29.4551C185.98 29.9355 185.318 30.1758 184.721 30.1758C184.123 30.1758 183.625 30.1172 183.227 30C182.84 29.8711 182.494 29.666 182.189 29.3848C181.498 28.752 181.152 27.8203 181.152 26.5898C181.152 25.2656 181.586 23.6016 182.453 21.5977L184.352 17.5547C184.715 16.8047 184.896 16.2129 184.896 15.7793C184.896 15.3457 184.656 15.1289 184.176 15.1289ZM193.123 28.8047C192.631 28.3359 192.244 27.7441 191.963 27.0293C191.682 26.3027 191.535 25.4473 191.523 24.4629C191.512 23.4785 191.629 22.4824 191.875 21.4746C192.133 20.4668 192.49 19.4941 192.947 18.5566C193.416 17.6191 193.973 16.7402 194.617 15.9199C195.273 15.0996 195.994 14.3848 196.779 13.7754C198.49 12.4629 200.266 11.8066 202.105 11.8066C204.52 11.8066 206.154 12.8672 207.01 14.9883C207.619 16.5234 207.654 18.3809 207.115 20.5605C206.623 22.5645 205.721 24.4043 204.408 26.0801C203.107 27.7559 201.572 28.9453 199.803 29.6484C198.912 30 198.033 30.1758 197.166 30.1758C196.311 30.1758 195.543 30.0645 194.863 29.8418C194.195 29.6191 193.615 29.2734 193.123 28.8047ZM196.48 20.2793C196.129 21.1465 195.848 22.0371 195.637 22.9512C195.438 23.8652 195.344 24.7324 195.355 25.5527C195.367 26.3613 195.49 27 195.725 27.4688C195.971 27.9258 196.363 28.1543 196.902 28.1543C197.441 28.1543 197.969 27.9727 198.484 27.6094C199.012 27.2344 199.521 26.7422 200.014 26.1328C200.506 25.5234 200.969 24.8203 201.402 24.0234C201.836 23.2266 202.217 22.3945 202.545 21.5273C203.26 19.6406 203.605 17.9648 203.582 16.5C203.582 15.2109 203.318 14.3906 202.791 14.0391C202.58 13.8984 202.281 13.8281 201.895 13.8281C201.52 13.8281 201.086 14.0039 200.594 14.3555C200.102 14.6953 199.609 15.1582 199.117 15.7441C198.625 16.3301 198.15 17.0156 197.693 17.8008C197.236 18.5859 196.832 19.4121 196.48 20.2793ZM213.162 28.3301C213.139 28.5059 212.881 29.4316 212.389 31.1074C211.908 32.7832 211.504 34.1133 211.176 35.0977C210.438 37.3008 209.828 38.6719 209.348 39.2109C208.961 39.6328 208.492 39.8438 207.941 39.8438C207.273 39.8438 206.764 39.5156 206.412 38.8594C206.307 38.6719 206.254 38.4609 206.254 38.2266C206.254 38.0039 206.43 37.5117 206.781 36.75C207.707 34.8164 208.943 31.0078 210.49 25.3242C211.111 23.0742 211.521 21.5449 211.721 20.7363L212.283 18.5391C212.646 17.0859 212.857 16.1016 212.916 15.5859C212.986 15.0586 212.957 14.6895 212.828 14.4785C212.699 14.2559 212.553 14.0918 212.389 13.9863C212.225 13.8691 212.072 13.7695 211.932 13.6875C211.791 13.6055 211.732 13.459 211.756 13.248C211.779 13.0254 211.873 12.8262 212.037 12.6504C212.213 12.4629 212.43 12.3047 212.688 12.1758C213.215 11.9297 213.742 11.8066 214.27 11.8066C214.809 11.8066 215.23 11.8711 215.535 12C215.84 12.1289 216.092 12.3047 216.291 12.5273C216.713 12.9844 216.9 13.4297 216.854 13.8633C216.736 14.7656 216.607 15.5391 216.467 16.1836C218.518 13.2656 220.645 11.8066 222.848 11.8066C224.852 11.8066 226.193 12.8438 226.873 14.918C227.107 15.6445 227.225 16.5293 227.225 17.5723C227.225 18.6152 227.066 19.6641 226.75 20.7188C226.434 21.7617 226.006 22.752 225.467 23.6895C224.928 24.627 224.301 25.4941 223.586 26.291C222.871 27.0762 222.115 27.7617 221.318 28.3477C219.631 29.5664 218.037 30.1758 216.537 30.1758C215.037 30.1758 213.912 29.5605 213.162 28.3301ZM215.869 20.8418C215.447 21.6621 215.102 22.4824 214.832 23.3027C214.574 24.123 214.445 24.873 214.445 25.5527C214.445 26.2324 214.592 26.7949 214.885 27.2402C215.178 27.6738 215.611 27.8906 216.186 27.8906C216.76 27.8906 217.328 27.7383 217.891 27.4336C218.465 27.1172 219.016 26.6953 219.543 26.168C220.082 25.6406 220.58 25.0254 221.037 24.3223C221.506 23.6074 221.91 22.8516 222.25 22.0547C222.988 20.3203 223.357 18.6738 223.357 17.1152C223.357 16.2715 223.246 15.6152 223.023 15.1465C222.801 14.6777 222.455 14.4434 221.986 14.4434C221.529 14.4434 221.049 14.625 220.545 14.9883C220.041 15.3398 219.514 15.8145 218.963 16.4121C218.412 16.998 217.867 17.6777 217.328 18.4512C216.789 19.2129 216.303 20.0098 215.869 20.8418Z" fill="#D34949"/>
</svg>
